<svg id="Capa_1" enable-background="new 0 0 512 512" height="512" viewBox="0 0 512 512" width="512" xmlns="http://www.w3.org/2000/svg" xmlns:xlink="http://www.w3.org/1999/xlink"><linearGradient id="SVGID_1_" gradientUnits="userSpaceOnUse" x1="256" x2="256" y1="492" y2="0"><stop offset="0" stop-color="#addcff"/><stop offset=".5028" stop-color="#eaf6ff"/><stop offset="1" stop-color="#eaf6ff"/></linearGradient><linearGradient id="SVGID_2_" gradientUnits="userSpaceOnUse" x1="256" x2="256" y1="512" y2="91"><stop offset="0" stop-color="#5558ff"/><stop offset="1" stop-color="#00c0ff"/></linearGradient><g><g><g><path d="m162.708 125.44-53.074-53.074c-5.857-5.858-15.355-5.858-21.213 0l-42.422 42.422c-5.858 5.858-5.858 15.355 0 21.213l50.189 50.19zm303.293 10.561c5.858-5.858 5.858-15.355 0-21.213l-42.422-42.422c-5.858-5.858-15.356-5.858-21.213 0l-53.074 53.074c-2.151 2.151-3.569 4.887-4.124 7.827-18.349-9.794-38.479-16.669-59.773-19.991 18.249-10.302 30.605-29.868 30.605-52.276 0-16.003-6.185-31.19-17.415-42.765-11.408-11.759-26.532-18.235-42.585-18.235s-31.176 6.476-42.585 18.235c-11.23 11.575-17.415 26.762-17.415 42.765 0 22.408 12.356 41.974 30.605 52.276-90.858 14.172-160.605 92.953-160.605 187.724 0 104.462 84.809 191 190 191 105.187 0 190-86.534 190-191 0-41.495-13.381-79.919-36.041-111.204 2.142-.715 4.155-1.908 5.853-3.606zm-210.001-45.001c-16.542 0-30-13.458-30-30 0-16.804 13.738-31 30-31s30 14.196 30 31c0 16.542-13.458 30-30 30z" fill="url(#SVGID_1_)"/></g></g><g><g><path d="m301 286h-30v-30c0-8.284-6.716-15-15-15s-15 6.716-15 15v45c0 8.284 6.716 15 15 15h45c8.284 0 15-6.716 15-15s-6.716-15-15-15zm-45-195c-115.794 0-210 94.206-210 210 0 115.813 94.014 211 210 211 115.826 0 210-95.014 210-211 0-115.794-94.206-210-210-210zm116.382 304.962-20.569-20.569c-5.857-5.858-15.354-5.858-21.213 0-5.858 5.858-5.858 15.355 0 21.213l20.734 20.734c-23.005 19.224-50.767 30.943-80.334 33.91v-29.25c0-8.284-6.716-15-15-15s-15 6.716-15 15v29.25c-29.402-2.95-57.022-14.552-79.951-33.585l20.351-20.351c5.858-5.858 5.858-15.355 0-21.213-5.857-5.858-15.355-5.858-21.213 0l-20.255 20.255c-18.818-23.084-30.286-50.846-33.195-80.355h29.263c8.284 0 15-6.716 15-15s-6.716-15-15-15h-29.252c3.01-30.176 15.001-57.746 33.253-79.993l20.894 20.894c5.858 5.858 15.356 5.857 21.213 0 5.858-5.858 5.858-15.355 0-21.213l-20.871-20.871c22.208-18.147 49.691-30.068 79.764-33.068v29.25c0 8.284 6.716 15 15 15s15-6.716 15-15v-29.252c30.249 3.017 57.88 15.057 80.155 33.383l-20.556 20.556c-5.857 5.858-5.857 15.355 0 21.213 5.858 5.859 15.356 5.857 21.213 0l20.501-20.502c18.074 22.18 29.946 49.602 32.938 79.602h-29.252c-8.284 0-15 6.716-15 15s6.716 14.99 15 14.99h29.263c-2.892 29.343-14.251 56.966-32.881 79.972z" fill="url(#SVGID_2_)"/></g></g></g></svg>